<svg display="none" xmlns="http://www.w3.org/2000/svg">
  <symbol viewBox="0 0 32 32" id="like">
    <path d="M2.66669 27.1667H5.33335C6.06669 27.1667 6.66669 26.5667 6.66669 25.8334V13.8334C6.66669 13.1 6.06669 12.5 5.33335 12.5H2.66669V27.1667ZM29.1067 17.6734C29.2534 17.34 29.3334 16.98 29.3334 16.6067V15.1667C29.3334 13.7 28.1334 12.5 26.6667 12.5H19.3334L20.56 6.30002C20.6267 6.00669 20.5867 5.68669 20.4534 5.42002C20.1467 4.82002 19.76 4.27335 19.28 3.79335L18.6667 3.16669L10.12 11.7134C9.61335 12.22 9.33335 12.9 9.33335 13.6067V24.06C9.33335 25.7667 10.7334 27.1667 12.4534 27.1667H23.2667C24.2 27.1667 25.08 26.6734 25.56 25.8734L29.1067 17.6734Z"/>
  </symbol>

  <symbol viewBox="0 0 32 32" id="dislike">
     <path d="M2.66666 5.83331H5.33333C6.06666 5.83331 6.66666 6.43331 6.66666 7.16665V19.1666C6.66666 19.9 6.06666 20.5 5.33333 20.5H2.66666V5.83331ZM29.1067 15.3266C29.2533 15.66 29.3333 16.02 29.3333 16.3933V17.8333C29.3333 19.3 28.1333 20.5 26.6667 20.5H19.3333L20.56 26.7C20.6267 26.9933 20.5867 27.3133 20.4533 27.58C20.1467 28.18 19.76 28.7266 19.28 29.2066L18.6667 29.8333L10.12 21.2866C9.61333 20.78 9.33333 20.1 9.33333 19.3933V8.95331C9.33333 7.23331 10.7333 5.83331 12.4533 5.83331H23.2533C24.2 5.83331 25.0667 6.32665 25.5467 7.12665L29.1067 15.3266Z" />
  </symbol>

  <symbol viewBox="0 0 18 18" id="search">
    <path fill-rule="evenodd" clip-rule="evenodd" d="M14.31 12.9L17.71 16.29C17.8993 16.4778 18.0058 16.7334 18.0058 17C18.0058 17.2666 17.8993 17.5222 17.71 17.71C17.5222 17.8993 17.2666 18.0058 17 18.0058C16.7334 18.0058 16.4778 17.8993 16.29 17.71L12.9 14.31C11.5025 15.407 9.77666 16.0022 8 16C3.58172 16 0 12.4183 0 8C0 3.58172 3.58172 0 8 0C12.4183 0 16 3.58172 16 8C16.0022 9.77666 15.407 11.5025 14.31 12.9ZM8 2C4.68629 2 2 4.68629 2 8C2 11.3137 4.68629 14 8 14C11.3137 14 14 11.3137 14 8C14 4.68629 11.3137 2 8 2Z" fill="#333333" />
  </symbol>

  <symbol viewBox="0 0 18 12" id="arrow">
    <path d="M18 5H3.83L7.41 1.41L6 0L0 6L6 12L7.41 10.59L3.83 7H18V5Z" fill="#0A0A0A" />
  </symbol>
</svg>